# Blender 4.3.0
# www.blender.org
o EUR-Pallet
v -0.399574 0.021551 0.460309
v -0.399574 0.101426 0.460309
v -0.287305 0.021551 0.599308
v -0.287305 0.101426 0.599308
v -0.287305 0.021551 0.460309
v -0.287305 0.101426 0.460309
v -0.400606 0.122833 -0.070829
v -0.400606 0.122833 0.073263
v -0.400606 0.101426 0.073263
v -0.400606 0.101426 -0.070829
v -0.287305 0.101426 -0.069023
v -0.287305 0.021551 -0.069023
v -0.287305 0.101426 0.073699
v -0.287305 0.021551 0.073699
v -0.399574 0.101426 -0.069023
v -0.399574 0.021551 -0.069023
v -0.399574 0.101426 0.073699
v -0.399574 0.021551 0.073699
v -0.400606 0.101426 0.459055
v -0.400606 0.122833 0.459055
v -0.400606 0.122833 -0.459912
v -0.400606 0.101426 -0.459912
v -0.287305 0.101426 -0.599335
v -0.287305 0.021551 -0.599335
v -0.287305 0.101426 -0.459912
v -0.287305 0.021551 -0.459912
v -0.399574 0.101426 -0.459912
v -0.399574 0.021551 -0.459912
v -0.284838 0.122863 -0.599335
v -0.284838 0.122863 0.598770
v -0.139646 0.122863 -0.599335
v -0.139646 0.122863 0.598770
v -0.236593 0.122863 -0.599335
v -0.236593 0.122863 0.598770
v -0.084474 0.122863 -0.599335
v -0.084474 0.122863 0.598770
v -0.072282 0.021551 0.599308
v -0.072282 0.101426 0.599308
v -0.072282 0.021551 0.460309
v -0.072282 0.101426 0.460309
v -0.072162 0.101426 -0.069023
v -0.072162 0.021551 -0.069023
v -0.072162 0.101426 0.073699
v -0.072162 0.021551 0.073699
v -0.072162 0.101426 -0.599335
v -0.072162 0.021551 -0.599335
v -0.072162 0.101426 -0.459912
v -0.072162 0.021551 -0.459912
v -0.286525 0.000000 -0.600107
v -0.286525 0.000000 0.600107
v -0.286525 0.021551 0.600107
v -0.286525 0.021551 -0.600107
v -0.073280 0.000000 -0.600107
v -0.073280 0.000000 0.600107
v -0.073280 0.021551 0.600107
v -0.073280 0.021551 -0.600107
v -0.386641 0.021551 0.599308
v -0.399574 0.021551 0.586375
v -0.399574 0.101426 0.586375
v -0.386641 0.101426 0.599308
v -0.387638 0.101426 0.600148
v -0.400606 0.101426 0.586072
v -0.400606 0.122833 0.586072
v -0.387638 0.122833 0.600148
v -0.387638 0.122833 -0.600177
v -0.400606 0.122833 -0.586401
v -0.400606 0.101426 -0.586401
v -0.387638 0.101426 -0.600177
v -0.386641 0.101426 -0.599335
v -0.399574 0.101426 -0.586401
v -0.399574 0.021551 -0.586401
v -0.386641 0.021551 -0.599335
v -0.400606 0.122863 -0.586401
v -0.387638 0.122863 -0.599335
v -0.387638 0.122863 0.598770
v -0.400606 0.122863 0.585836
v -0.400508 0.000000 -0.587173
v -0.386641 0.000000 -0.600107
v -0.386641 0.000000 0.600107
v -0.400508 0.000000 0.587173
v -0.400508 0.021551 0.587173
v -0.386641 0.021551 0.600107
v -0.386641 0.021551 -0.600107
v -0.400508 0.021551 -0.587173
v -0.287471 0.144095 0.596003
v -0.284838 0.141328 0.598770
v -0.287471 0.144095 -0.596568
v -0.284838 0.141328 -0.599335
v -0.139646 0.141328 0.598770
v -0.142321 0.144095 0.596003
v -0.233918 0.144095 0.596003
v -0.236593 0.141328 0.598770
v -0.139646 0.141328 -0.599335
v -0.142321 0.144095 -0.596568
v -0.236593 0.141328 -0.599335
v -0.233918 0.144095 -0.596568
v -0.081707 0.144095 0.596003
v -0.084474 0.141328 0.598770
v -0.084474 0.141328 -0.599335
v -0.081707 0.144095 -0.596568
v -0.396807 0.144095 0.584690
v -0.400606 0.141328 0.585836
v -0.385494 0.144095 0.596003
v -0.387638 0.141328 0.598770
v -0.385494 0.144095 -0.596568
v -0.387638 0.141328 -0.599335
v -0.396807 0.144095 -0.585255
v -0.400606 0.141328 -0.586401
v 0.399574 0.021551 0.460309
v 0.399574 0.101426 0.460309
v 0.287305 0.021551 0.599308
v 0.287305 0.101426 0.599308
v 0.287305 0.021551 0.460309
v 0.287305 0.101426 0.460309
v 0.400697 0.122833 -0.070829
v 0.400697 0.122833 0.073263
v 0.400697 0.101426 0.073263
v 0.400697 0.101426 -0.070829
v 0.287305 0.101426 -0.069023
v 0.287305 0.021551 -0.069023
v 0.287305 0.101426 0.073699
v 0.287305 0.021551 0.073699
v 0.399574 0.101426 -0.069023
v 0.399574 0.021551 -0.069023
v 0.399574 0.101426 0.073699
v 0.399574 0.021551 0.073699
v 0.400697 0.101426 0.459055
v 0.400697 0.122833 0.459055
v 0.400697 0.122833 -0.459912
v 0.400697 0.101426 -0.459912
v 0.287305 0.101426 -0.599335
v 0.287305 0.021551 -0.599335
v 0.287305 0.101426 -0.459912
v 0.287305 0.021551 -0.459912
v 0.399574 0.101426 -0.459912
v 0.399574 0.021551 -0.459912
v 0.284838 0.122863 -0.599335
v 0.284838 0.122863 0.598770
v 0.139646 0.122863 -0.599335
v 0.139646 0.122863 0.598770
v 0.236593 0.122863 -0.599335
v 0.236593 0.122863 0.598770
v 0.084474 0.122863 -0.599335
v 0.084474 0.122863 0.598770
v 0.072282 0.021551 0.599308
v 0.072282 0.101426 0.599308
v 0.072282 0.021551 0.460309
v 0.072282 0.101426 0.460309
v 0.072162 0.101426 -0.069023
v 0.072162 0.021551 -0.069023
v 0.072162 0.101426 0.073699
v 0.072162 0.021551 0.073699
v 0.072162 0.101426 -0.599335
v 0.072162 0.021551 -0.599335
v 0.072162 0.101426 -0.459912
v 0.072162 0.021551 -0.459912
v 0.286525 0.000000 -0.600107
v 0.286525 0.000000 0.600107
v 0.286525 0.021551 0.600107
v 0.286525 0.021551 -0.600107
v 0.073280 0.000000 -0.600107
v 0.073280 0.000000 0.600107
v 0.073280 0.021551 0.600107
v 0.073280 0.021551 -0.600107
v 0.386641 0.021551 0.599308
v 0.399574 0.021551 0.586375
v 0.399574 0.101426 0.586375
v 0.386641 0.101426 0.599308
v 0.387729 0.101426 0.600148
v 0.400697 0.101426 0.586072
v 0.400697 0.122833 0.586072
v 0.387729 0.122833 0.600148
v 0.387729 0.122833 -0.600177
v 0.400697 0.122833 -0.586401
v 0.400697 0.101426 -0.586401
v 0.387729 0.101426 -0.600177
v 0.386641 0.101426 -0.599335
v 0.399574 0.101426 -0.586401
v 0.399574 0.021551 -0.586401
v 0.386641 0.021551 -0.599335
v 0.400697 0.122863 -0.586401
v 0.386641 0.122863 -0.599335
v 0.387729 0.122863 0.598770
v 0.400697 0.122863 0.585836
v 0.400508 0.000000 -0.587173
v 0.386641 0.000000 -0.600107
v 0.386641 0.000000 0.600107
v 0.400508 0.000000 0.587173
v 0.400508 0.021551 0.587173
v 0.386641 0.021551 0.600107
v 0.386641 0.021551 -0.600107
v 0.400508 0.021551 -0.587173
v 0.287471 0.144095 0.596003
v 0.284838 0.141328 0.598770
v 0.287471 0.144095 -0.596568
v 0.284838 0.141328 -0.599335
v 0.139646 0.141328 0.598770
v 0.142321 0.144095 0.596003
v 0.233918 0.144095 0.596003
v 0.236593 0.141328 0.598770
v 0.139646 0.141328 -0.599335
v 0.142321 0.144095 -0.596568
v 0.236593 0.141328 -0.599335
v 0.233918 0.144095 -0.596568
v 0.081707 0.144095 0.596003
v 0.084474 0.141328 0.598770
v 0.084474 0.141328 -0.599335
v 0.081707 0.144095 -0.596568
v 0.396807 0.144095 0.584690
v 0.400697 0.141328 0.585836
v 0.385494 0.144095 0.596003
v 0.387729 0.141328 0.598770
v 0.385494 0.144095 -0.596568
v 0.386641 0.141328 -0.599335
v 0.396807 0.144095 -0.585255
v 0.400697 0.141328 -0.586401
vn -0.0000 -0.0000 1.0000
vn -0.0000 -0.0000 -1.0000
vn 1.0000 -0.0000 -0.0000
vn -1.0000 -0.0000 -0.0000
vn -0.0000 -1.0000 -0.0000
vn -0.0000 1.0000 -0.0000
vn -0.7062 -0.0000 -0.7081
vn -0.7062 -0.0000 0.7081
vn -0.0000 0.7071 0.7071
vn -0.7071 -0.0000 0.7071
vn -0.7355 -0.0000 0.6776
vn -0.7281 -0.0000 -0.6854
vn -0.7071 -0.0000 -0.7071
vn -0.6821 -0.0000 -0.7313
vn -0.6821 -0.0000 0.7313
vn 0.7244 0.6894 -0.0000
vn 0.7190 0.6950 -0.0000
vn -0.0000 0.7071 -0.7071
vn -0.7190 0.6950 -0.0000
vn -0.7071 0.7071 -0.0000
vn -0.5253 0.8176 -0.2358
vn -0.4395 0.7831 -0.4401
vn -0.5335 0.8189 -0.2118
vn -0.4395 0.7831 0.4401
vn -0.5254 0.8176 0.2358
vn -0.5335 0.8189 0.2118
vn 0.6771 -0.0000 -0.7359
vn 0.7062 -0.0000 0.7081
vn 0.7071 -0.0000 0.7071
vn 0.7355 -0.0000 0.6776
vn 0.7281 -0.0000 -0.6854
vn 0.7071 -0.0000 -0.7071
vn 0.6821 -0.0000 -0.7313
vn 0.6821 -0.0000 0.7313
vn -0.7244 0.6894 -0.0000
vn 0.7071 0.7071 -0.0000
vn 0.5315 0.8071 -0.2572
vn 0.5395 0.8111 -0.2257
vn 0.2384 0.7549 -0.6110
vn 0.2357 0.7546 -0.6124
vn 0.4345 0.7885 0.4352
vn 0.5261 0.8246 0.2082
vn 0.5176 0.8231 0.2336
vt 0.988649 0.472432
vt 0.988649 0.517531
vt 0.955896 0.517531
vt 0.955896 0.472432
vt 0.737124 0.936575
vt 0.737124 0.981674
vt 0.699523 0.981674
vt 0.699523 0.936575
vt 0.682332 0.976737
vt 0.637232 0.976737
vt 0.637232 0.924629
vt 0.682332 0.924629
vt 0.269354 0.971443
vt 0.224255 0.971443
vt 0.224255 0.924183
vt 0.269354 0.924183
vt 0.964029 0.076511
vt 0.964029 0.124127
vt 0.956004 0.124127
vt 0.956004 0.076511
vt 0.114112 0.471641
vt 0.114112 0.772035
vt 0.060094 0.772035
vt 0.060094 0.471641
vt 0.475760 0.772826
vt 0.475760 0.472432
vt 0.483785 0.472432
vt 0.483785 0.772826
vt 0.894860 0.772826
vt 0.886835 0.772826
vt 0.886835 0.472432
vt 0.894860 0.472432
vt 0.701560 0.772035
vt 0.701560 0.471641
vt 0.706837 0.476502
vt 0.706837 0.767173
vt 0.964029 0.007498
vt 0.964029 0.061515
vt 0.956004 0.061515
vt 0.956004 0.007498
vt 0.105194 0.909724
vt 0.060094 0.909724
vt 0.060094 0.856220
vt 0.105194 0.856220
vt 0.984531 0.787821
vt 0.984531 0.832920
vt 0.946930 0.832920
vt 0.946930 0.787821
vt 0.497839 0.841325
vt 0.452739 0.841325
vt 0.452739 0.787821
vt 0.497839 0.787821
vt 0.970585 0.380426
vt 0.970585 0.425526
vt 0.932983 0.425526
vt 0.932983 0.380426
vt 0.452739 0.772826
vt 0.452739 0.472432
vt 0.460764 0.472432
vt 0.460764 0.772826
vt 0.760144 0.932042
vt 0.760144 0.979460
vt 0.752119 0.979460
vt 0.752119 0.932042
vt 0.633672 0.471641
vt 0.633672 0.772035
vt 0.586056 0.772035
vt 0.586056 0.471641
vt 0.940901 0.763102
vt 0.932876 0.763102
vt 0.932876 0.472432
vt 0.940901 0.472432
vt 0.279157 0.772826
vt 0.279157 0.472432
vt 0.284322 0.477293
vt 0.284322 0.767964
vt 0.211579 0.472432
vt 0.211579 0.772826
vt 0.164160 0.772826
vt 0.164160 0.472432
vt 0.917881 0.772826
vt 0.909855 0.772826
vt 0.909855 0.472432
vt 0.917881 0.472432
vt 0.085829 0.007498
vt 0.149165 0.007498
vt 0.149165 0.456645
vt 0.085829 0.456645
vt 0.932983 0.298168
vt 0.932983 0.007498
vt 0.941009 0.007498
vt 0.941009 0.298168
vt 0.992502 0.313164
vt 0.992502 0.350765
vt 0.985580 0.350765
vt 0.985580 0.313164
vt 0.931934 0.907351
vt 0.886835 0.907351
vt 0.886835 0.859932
vt 0.931934 0.859932
vt 0.970585 0.360582
vt 0.965736 0.365431
vt 0.932983 0.365431
vt 0.932983 0.313164
vt 0.970585 0.313164
vt 0.045099 0.935784
vt 0.045099 0.980883
vt 0.007498 0.980883
vt 0.007498 0.935784
vt 0.437263 0.936575
vt 0.437263 0.981674
vt 0.404510 0.981674
vt 0.404510 0.936575
vt 0.269354 0.909188
vt 0.224255 0.909188
vt 0.224255 0.856921
vt 0.269354 0.856921
vt 0.979024 0.007498
vt 0.985946 0.007498
vt 0.985946 0.012359
vt 0.979024 0.012359
vt 0.986996 0.680796
vt 0.986996 0.713853
vt 0.978917 0.713853
vt 0.978917 0.680796
vt 0.680923 0.007498
vt 0.680923 0.456645
vt 0.676061 0.451797
vt 0.676062 0.012346
vt 0.979024 0.045486
vt 0.985946 0.045486
vt 0.655401 0.008535
vt 0.659642 0.012776
vt 0.659642 0.451367
vt 0.655401 0.455608
vt 0.985946 0.254875
vt 0.985946 0.288002
vt 0.979024 0.288002
vt 0.979024 0.254875
vt 0.045099 0.471641
vt 0.045099 0.920788
vt 0.007498 0.920788
vt 0.007498 0.471641
vt 0.393909 0.472432
vt 0.393909 0.921579
vt 0.386987 0.921579
vt 0.386987 0.472432
vt 0.069796 0.455608
vt 0.008535 0.455608
vt 0.008535 0.008535
vt 0.069796 0.008535
vt 0.835276 0.008535
vt 0.870802 0.008535
vt 0.870802 0.455608
vt 0.835276 0.455608
vt 0.979024 0.182000
vt 0.979024 0.144399
vt 0.985946 0.144399
vt 0.985946 0.182000
vt 0.782116 0.471641
vt 0.782116 0.920788
vt 0.775194 0.920788
vt 0.775194 0.471641
vt 0.105194 0.787030
vt 0.105194 0.841224
vt 0.060094 0.841224
vt 0.060094 0.787030
vt 0.979024 0.250013
vt 0.985946 0.250013
vt 0.704249 0.787030
vt 0.704249 0.850366
vt 0.697327 0.850366
vt 0.697327 0.787030
vt 0.819243 0.471641
vt 0.819243 0.920788
vt 0.812321 0.920788
vt 0.812321 0.471641
vt 0.209260 0.976291
vt 0.164160 0.976291
vt 0.164160 0.924183
vt 0.209260 0.924183
vt 0.562142 0.787030
vt 0.562142 0.841224
vt 0.517043 0.841224
vt 0.517043 0.787030
vt 0.209260 0.787821
vt 0.209260 0.841925
vt 0.164160 0.841925
vt 0.164160 0.787821
vt 0.622237 0.787030
vt 0.622237 0.841134
vt 0.577137 0.841134
vt 0.577137 0.787030
vt 0.682332 0.909634
vt 0.637232 0.909634
vt 0.637232 0.856130
vt 0.682332 0.856130
vt 0.276838 0.787821
vt 0.276838 0.841925
vt 0.231738 0.841925
vt 0.231738 0.787821
vt 0.682332 0.787030
vt 0.682332 0.841134
vt 0.637232 0.841134
vt 0.637232 0.787030
vt 0.209260 0.909188
vt 0.164160 0.909188
vt 0.164160 0.856921
vt 0.209260 0.856921
vt 0.234098 0.007498
vt 0.289041 0.007498
vt 0.289041 0.457436
vt 0.234098 0.457436
vt 0.842317 0.471641
vt 0.842317 0.911882
vt 0.834238 0.911882
vt 0.834238 0.471641
vt 0.468990 0.007498
vt 0.468990 0.457436
vt 0.463791 0.452588
vt 0.463791 0.012346
vt 0.443597 0.007498
vt 0.448796 0.012346
vt 0.448796 0.452588
vt 0.443597 0.457436
vt 0.986996 0.739246
vt 0.986996 0.772303
vt 0.978917 0.772303
vt 0.978917 0.739246
vt 0.894914 0.007498
vt 0.894914 0.457436
vt 0.886835 0.457436
vt 0.886835 0.007498
vt 0.219103 0.457436
vt 0.164160 0.457436
vt 0.164160 0.007498
vt 0.219103 0.007498
vt 0.697327 0.920304
vt 0.697327 0.865361
vt 0.705406 0.865361
vt 0.705406 0.920304
vt 0.963975 0.665800
vt 0.955896 0.665800
vt 0.955896 0.610857
vt 0.963975 0.610857
vt 0.070834 0.456645
vt 0.007498 0.456645
vt 0.737124 0.471641
vt 0.737124 0.921579
vt 0.729045 0.921579
vt 0.729045 0.471641
vt 0.517043 0.772035
vt 0.517043 0.471641
vt 0.571060 0.471641
vt 0.571060 0.772035
vt 0.269354 0.976291
vt 0.224255 0.976291
vt 0.964029 0.129404
vt 0.956004 0.129404
vt 0.752119 0.926877
vt 0.760144 0.926877
vt 0.886835 0.855084
vt 0.931934 0.855084
vt 0.437744 0.472432
vt 0.437744 0.911882
vt 0.430822 0.911882
vt 0.430822 0.472432
vt 0.986996 0.719052
vt 0.978917 0.719052
vt 0.978917 0.734047
vt 0.986996 0.734047
vt 0.624115 0.008535
vt 0.624115 0.455608
vt 0.623078 0.456645
vt 0.623078 0.007498
vt 0.871840 0.456645
vt 0.834238 0.456645
vt 0.834238 0.007498
vt 0.986984 0.145436
vt 0.986984 0.180963
vt 0.871840 0.007498
vt 0.705287 0.849329
vt 0.705287 0.788068
vt 0.962818 0.595862
vt 0.955896 0.595862
vt 0.955896 0.532526
vt 0.962818 0.532526
vt 0.070834 0.007498
vt 0.656205 0.007498
vt 0.661066 0.012346
vt 0.661066 0.451797
vt 0.656204 0.456645
vt 0.986984 0.013163
vt 0.986984 0.044449
vt 0.871840 0.471641
vt 0.871840 0.920788
vt 0.864918 0.920788
vt 0.864918 0.471641
vt 0.946930 0.915178
vt 0.979683 0.915178
vt 0.979683 0.960278
vt 0.946930 0.960278
vt 0.299317 0.936575
vt 0.336918 0.936575
vt 0.336918 0.981674
vt 0.299317 0.981674
vt 0.562142 0.924719
vt 0.562142 0.976827
vt 0.517043 0.976827
vt 0.517043 0.924719
vt 0.105194 0.929568
vt 0.105194 0.976827
vt 0.060094 0.976827
vt 0.060094 0.929568
vt 0.964029 0.197292
vt 0.956004 0.197292
vt 0.956004 0.149676
vt 0.964029 0.149676
vt 0.963921 0.734813
vt 0.955896 0.734813
vt 0.955896 0.680796
vt 0.963921 0.680796
vt 0.622237 0.856130
vt 0.622237 0.909634
vt 0.577137 0.909634
vt 0.577137 0.856130
vt 0.946930 0.855084
vt 0.984531 0.855084
vt 0.984531 0.900183
vt 0.946930 0.900183
vt 0.497839 0.856320
vt 0.497839 0.909824
vt 0.452739 0.909824
vt 0.452739 0.856320
vt 0.351914 0.936575
vt 0.389515 0.936575
vt 0.389515 0.981674
vt 0.351914 0.981674
vt 0.964029 0.259706
vt 0.956004 0.259706
vt 0.956004 0.212288
vt 0.964029 0.212288
vt 0.992502 0.403362
vt 0.985580 0.403362
vt 0.985580 0.365760
vt 0.992502 0.365760
vt 0.497839 0.924819
vt 0.497839 0.972238
vt 0.452739 0.972238
vt 0.452739 0.924819
vt 0.775194 0.935784
vt 0.812795 0.935784
vt 0.812795 0.980883
vt 0.775194 0.980883
vt 0.839087 0.935784
vt 0.871840 0.935784
vt 0.871840 0.980883
vt 0.839087 0.980883
vt 0.931934 0.922346
vt 0.931934 0.974613
vt 0.886835 0.974613
vt 0.886835 0.922346
vt 0.978970 0.648880
vt 0.978970 0.643610
vt 0.985893 0.643610
vt 0.985893 0.648880
vt 0.149165 0.974831
vt 0.141086 0.974831
vt 0.141086 0.941773
vt 0.149165 0.941773
vt 0.602813 0.007498
vt 0.608083 0.012346
vt 0.608083 0.451797
vt 0.603221 0.456645
vt 0.978970 0.610857
vt 0.985893 0.610857
vt 0.522742 0.008535
vt 0.522742 0.455608
vt 0.518501 0.451367
vt 0.518501 0.012776
vt 0.985946 0.230156
vt 0.979024 0.230156
vt 0.979024 0.196996
vt 0.985946 0.196996
vt 0.729045 0.007498
vt 0.766646 0.007498
vt 0.766646 0.456645
vt 0.729045 0.456645
vt 0.306239 0.921579
vt 0.299317 0.921579
vt 0.299317 0.472432
vt 0.306239 0.472432
vt 0.818206 0.008535
vt 0.818206 0.455608
vt 0.782679 0.455608
vt 0.782679 0.008535
vt 0.979024 0.076511
vt 0.985946 0.076511
vt 0.985946 0.114112
vt 0.979024 0.114112
vt 0.350074 0.921579
vt 0.343152 0.921579
vt 0.343152 0.472432
vt 0.350074 0.472432
vt 0.979024 0.235018
vt 0.985946 0.235018
vt 0.371992 0.921579
vt 0.365069 0.921579
vt 0.365069 0.472432
vt 0.371992 0.472432
vt 0.622237 0.924629
vt 0.622237 0.976737
vt 0.577137 0.976737
vt 0.577137 0.924629
vt 0.562142 0.856220
vt 0.562142 0.909724
vt 0.517043 0.909724
vt 0.517043 0.856220
vt 0.931934 0.787821
vt 0.931934 0.840088
vt 0.886835 0.840088
vt 0.886835 0.787821
vt 0.760198 0.911882
vt 0.752119 0.911882
vt 0.752119 0.471641
vt 0.760198 0.471641
vt 0.337094 0.007498
vt 0.342293 0.012346
vt 0.342293 0.452588
vt 0.337094 0.457436
vt 0.362487 0.007498
vt 0.362487 0.457436
vt 0.357288 0.452588
vt 0.357288 0.012346
vt 0.985893 0.565584
vt 0.977814 0.565584
vt 0.977814 0.532526
vt 0.985893 0.532526
vt 0.149165 0.921579
vt 0.141086 0.921579
vt 0.141086 0.471641
vt 0.149165 0.471641
vt 0.917988 0.457436
vt 0.909909 0.457436
vt 0.909909 0.007498
vt 0.917988 0.007498
vt 0.105194 0.924719
vt 0.060094 0.924719
vt 0.956004 0.144399
vt 0.964029 0.144399
vt 0.964029 0.264871
vt 0.956004 0.264871
vt 0.834238 0.980883
vt 0.834238 0.935784
vt 0.415826 0.911882
vt 0.408904 0.911882
vt 0.408904 0.472432
vt 0.415826 0.472432
vt 0.149165 0.936575
vt 0.141086 0.936575
vt 0.977814 0.570782
vt 0.985893 0.570782
vt 0.554028 0.008535
vt 0.555065 0.007498
vt 0.555065 0.456645
vt 0.554028 0.455608
vt 0.819243 0.456645
vt 0.781642 0.456645
vt 0.819243 0.007498
vt 0.986984 0.113075
vt 0.986984 0.077548
vt 0.781642 0.007498
vt 0.007498 0.007498
vt 0.517043 0.012346
vt 0.522312 0.007498
vt 0.521904 0.456645
vt 0.517043 0.451797
vt 0.986930 0.643180
vt 0.986930 0.611895
vt 0.328157 0.921579
vt 0.321234 0.921579
vt 0.321234 0.472432
vt 0.328157 0.472432
vt 0.570060 0.007498
vt 0.570060 0.456645
vt 0.714050 0.007498
vt 0.714050 0.456645
vt 0.638949 0.476502
vt 0.638949 0.767173
vt 0.653944 0.772035
vt 0.653944 0.471641
vt 0.216743 0.477293
vt 0.216743 0.767964
vt 0.231738 0.772826
vt 0.231738 0.472432
vt 0.410540 0.007498
vt 0.410540 0.457436
vt 0.395544 0.007498
vt 0.395544 0.457436
vt 0.304037 0.007498
vt 0.304037 0.457436
vt 0.502047 0.007498
vt 0.502047 0.457436
s 1
f 3/1/1 4/2/1 60/3/1 57/4/1
f 1/5/2 2/6/2 6/7/2 5/8/2
f 5/9/3 6/10/3 4/11/3 3/12/3
f 58/13/4 59/14/4 2/15/4 1/16/4
f 19/17/4 62/18/4 63/19/4 20/20/4
f 10/21/5 118/22/5 117/23/5 9/24/5
f 7/25/2 115/26/2 118/27/2 10/28/2
f 117/29/1 116/30/1 8/31/1 9/32/1
f 62/33/5 170/34/5 169/35/5 61/36/5
f 10/37/4 9/38/4 8/39/4 7/40/4
f 12/41/3 11/42/3 13/43/3 14/44/3
f 14/45/1 13/46/1 17/47/1 18/48/1
f 18/49/4 17/50/4 15/51/4 16/52/4
f 16/53/2 15/54/2 11/55/2 12/56/2
f 20/57/2 128/58/2 127/59/2 19/60/2
f 67/61/4 22/62/4 21/63/4 66/64/4
f 63/65/6 171/66/6 128/67/6 20/68/6
f 169/69/1 172/70/1 64/71/1 61/72/1
f 66/73/6 174/74/6 173/75/6 65/76/6
f 67/77/5 175/78/5 130/79/5 22/80/5
f 130/81/1 129/82/1 21/83/1 22/84/1
f 35/85/5 143/86/5 144/87/5 36/88/5
f 65/89/2 173/90/2 176/91/2 68/92/2
f 34/93/1 32/94/1 89/95/1 92/96/1
f 28/97/4 27/98/4 70/99/4 71/100/4
f 71/101/5 72/102/5 24/103/5 26/104/5 28/105/5
f 26/106/1 25/107/1 27/108/1 28/109/1
f 72/110/2 69/111/2 23/112/2 24/113/2
f 24/114/3 23/115/3 25/116/3 26/117/3
f 73/118/7 108/119/7 106/120/7 74/121/7
f 49/122/2 78/123/2 83/124/2 52/125/2
f 74/126/5 75/127/5 76/128/5 73/129/5
f 29/130/2 74/121/2 106/120/2 88/131/2
f 105/132/6 107/133/6 101/134/6 103/135/6
f 75/136/1 30/137/1 86/138/1 104/139/1
f 31/140/5 32/141/5 34/142/5 33/143/5
f 32/144/3 31/145/3 93/146/3 89/147/3
f 97/148/6 205/149/6 208/150/6 100/151/6
f 94/152/6 96/153/6 91/154/6 90/155/6
f 31/156/2 33/157/2 95/158/2 93/159/2
f 33/160/4 34/161/4 92/162/4 95/163/4
f 147/164/2 39/165/2 40/166/2 148/167/2
f 102/168/8 76/169/8 75/136/8 104/139/8
f 99/170/2 207/171/2 143/172/2 35/173/2
f 35/174/4 36/175/4 98/176/4 99/177/4
f 37/178/4 38/179/4 40/180/4 39/181/4
f 37/182/1 145/183/1 146/184/1 38/185/1
f 150/186/2 42/187/2 41/188/2 149/189/2
f 154/190/2 46/191/2 45/192/2 153/193/2
f 44/194/4 43/195/4 41/196/4 42/197/4
f 44/198/1 152/199/1 151/200/1 43/201/1
f 48/202/1 156/203/1 155/204/1 47/205/1
f 48/206/4 47/207/4 45/208/4 46/209/4
f 53/210/5 161/211/5 162/212/5 54/213/5
f 77/214/4 80/215/4 81/216/4 84/217/4
f 78/218/5 79/219/5 80/220/5 77/221/5
f 83/222/6 84/223/6 81/224/6 82/225/6
f 79/226/1 50/227/1 51/228/1 82/229/1
f 50/230/3 49/231/3 52/232/3 51/233/3
f 55/234/6 163/235/6 164/236/6 56/237/6
f 56/238/2 164/239/2 161/240/2 53/241/2
f 162/242/1 163/243/1 55/244/1 54/245/1
f 98/246/9 206/247/9 205/149/9 97/148/9
f 53/248/4 54/249/4 55/250/4 56/251/4
f 8/252/6 116/253/6 115/254/6 7/255/6
f 57/256/10 60/257/10 59/14/10 58/13/10
f 63/19/11 62/18/11 61/258/11 64/259/11
f 67/61/12 66/64/12 65/260/12 68/261/12
f 69/262/13 72/263/13 71/100/13 70/99/13
f 73/264/4 76/265/4 102/266/4 108/267/4
f 77/268/14 84/269/14 83/124/14 78/123/14
f 81/270/15 80/271/15 79/226/15 82/229/15
f 87/272/16 85/273/16 86/274/16 88/275/16
f 90/155/9 91/154/9 92/276/9 89/277/9
f 94/152/17 90/155/17 89/277/17 93/278/17
f 96/279/18 94/280/18 93/159/18 95/158/18
f 91/154/19 96/153/19 95/281/19 92/276/19
f 208/282/18 207/171/18 99/170/18 100/283/18
f 144/284/1 206/285/1 98/286/1 36/287/1
f 97/148/20 100/151/20 99/288/20 98/246/20
f 107/133/21 105/132/22 106/289/22 108/290/23
f 103/135/24 101/134/25 102/291/26 104/292/24
f 105/293/18 87/294/18 88/131/18 106/120/18
f 101/134/25 107/133/21 108/290/23 102/291/26
f 85/273/9 103/135/9 104/292/9 86/274/9
f 30/295/3 29/296/3 88/297/3 86/298/3
f 111/299/1 165/300/1 168/301/1 112/302/1
f 109/303/2 113/304/2 114/305/2 110/306/2
f 113/307/4 111/308/4 112/309/4 114/310/4
f 166/311/3 109/312/3 110/313/3 167/314/3
f 127/315/3 128/316/3 171/317/3 170/318/3
f 118/319/3 115/320/3 116/321/3 117/322/3
f 120/323/4 122/324/4 121/325/4 119/326/4
f 122/327/1 126/328/1 125/329/1 121/330/1
f 126/331/3 124/332/3 123/333/3 125/334/3
f 124/335/2 120/336/2 119/337/2 123/338/2
f 175/339/3 174/340/3 129/341/3 130/342/3
f 142/343/1 200/344/1 197/345/1 140/346/1
f 136/347/3 179/348/3 178/349/3 135/350/3
f 134/351/1 136/352/1 135/353/1 133/354/1
f 180/355/2 132/356/2 131/357/2 177/358/2
f 132/359/4 134/360/4 133/361/4 131/362/4
f 181/363/27 182/364/27 214/365/27 216/366/27
f 157/367/2 160/368/2 191/369/2 186/370/2
f 182/371/5 181/372/5 184/373/5 183/374/5
f 137/375/2 196/376/2 214/365/2 182/364/2
f 213/377/6 211/378/6 209/379/6 215/380/6
f 183/381/1 212/382/1 194/383/1 138/384/1
f 139/385/5 141/386/5 142/387/5 140/388/5
f 140/389/4 197/390/4 201/391/4 139/392/4
f 202/393/6 198/394/6 199/395/6 204/396/6
f 139/397/2 201/398/2 203/399/2 141/400/2
f 141/401/3 203/402/3 200/403/3 142/404/3
f 210/405/28 212/382/28 183/381/28 184/406/28
f 143/407/3 207/408/3 206/409/3 144/410/3
f 145/411/3 147/412/3 148/413/3 146/414/3
f 152/415/3 150/416/3 149/417/3 151/418/3
f 156/419/3 154/420/3 153/421/3 155/422/3
f 185/423/3 192/424/3 189/425/3 188/426/3
f 186/427/5 185/428/5 188/429/5 187/430/5
f 191/431/6 190/432/6 189/433/6 192/434/6
f 187/435/1 190/436/1 159/437/1 158/438/1
f 158/439/4 159/440/4 160/441/4 157/442/4
f 161/443/3 164/444/3 163/445/3 162/446/3
f 165/447/29 166/311/29 167/314/29 168/448/29
f 171/317/30 172/449/30 169/450/30 170/318/30
f 175/339/31 176/451/31 173/452/31 174/340/31
f 177/358/32 178/453/32 179/454/32 180/355/32
f 181/455/3 216/456/3 210/457/3 184/458/3
f 185/459/33 186/370/33 191/369/33 192/460/33
f 189/461/34 190/436/34 187/435/34 188/462/34
f 195/463/35 196/464/35 194/465/35 193/466/35
f 198/394/9 197/467/9 200/468/9 199/395/9
f 202/393/19 201/469/19 197/467/19 198/394/19
f 204/470/18 203/399/18 201/398/18 202/471/18
f 199/395/17 200/468/17 203/472/17 204/396/17
f 205/149/36 206/247/36 207/473/36 208/150/36
f 215/380/37 216/474/38 214/475/39 213/377/40
f 211/378/41 212/476/41 210/477/42 209/379/43
f 213/478/40 214/365/39 196/376/18 195/479/18
f 209/379/43 210/477/42 216/474/38 215/380/37
f 193/466/9 194/465/9 212/476/9 211/378/9
f 138/480/4 194/481/4 196/482/4 137/483/4
f 195/463/6 193/466/6 211/378/6 213/377/6
f 87/272/6 105/132/6 103/135/6 85/273/6
f 137/484/5 182/371/5 183/374/5 138/485/5
f 29/486/5 30/487/5 75/127/5 74/126/5
f 64/488/6 172/489/6 171/66/6 63/65/6
f 19/490/5 127/491/5 170/34/5 62/33/5
f 68/492/5 176/493/5 175/78/5 67/77/5
f 21/494/6 129/495/6 174/74/6 66/73/6
f 52/496/6 83/222/6 82/225/6 51/497/6
f 160/498/6 159/499/6 190/432/6 191/431/6
f 157/500/5 186/427/5 187/430/5 158/501/5
f 49/502/5 50/503/5 79/219/5 78/218/5
